<svg xmlns="http://www.w3.org/2000/svg"  viewBox="0 0 80 80" width="80px" height="80px"><path fill="#ff7bb7" d="M4.5 4.5H75.5V75.5H4.5z"/><path fill="#ea4c89" d="M75,5v70H5V5H75 M76,4H4v72h72V4L76,4z"/><path fill="#4c5a6b" d="M12.5 12.5H67.5V67.5H12.5z"/><path fill="#36404d" d="M67,13v54H13V13H67 M68,12H12v56h56V12L68,12z"/><path fill="#ff7bb7" d="M32 54h-6V27h6V54zM50.054 26H50v11.067h-.021c-.977-1.721-2.708-2.582-5.193-2.582-2.621 0-4.74.928-6.359 2.781C36.81 39.12 36 41.584 36 44.661c0 2.944.735 5.235 2.201 6.877C39.669 53.18 41.608 54 44.015 54c2.623 0 4.61-1.005 5.964-3.016H50V54h6V26H50.054zM49.025 48.203c-.763.934-1.75 1.4-2.959 1.4-1.273 0-2.27-.442-2.988-1.327C42.36 47.393 42 46.132 42 44.498c0-1.744.372-3.117 1.115-4.116.745-.999 1.778-1.5 3.102-1.5 1.173 0 2.124.401 2.855 1.199.459.503.757 1.096.928 1.76v4.199C49.823 46.879 49.51 47.609 49.025 48.203z"/></svg>