<?xml version="1.0" standalone="no"?>
<!DOCTYPE svg PUBLIC "-//W3C//DTD SVG 20010904//EN"
 "http://www.w3.org/TR/2001/REC-SVG-20010904/DTD/svg10.dtd">
<svg version="1.0" xmlns="http://www.w3.org/2000/svg"
 width="264.000000pt" height="81.000000pt" viewBox="0 0 264.000000 81.000000"
 preserveAspectRatio="xMidYMid meet">

<g transform="translate(0.000000,81.000000) scale(0.100000,-0.100000)"
fill="#000000" stroke="none">
<path d="M10 411 l0 -379 23 -6 c12 -3 59 -6 105 -6 l82 0 0 295 0 295 134 0
c133 0 135 0 155 -26 37 -47 23 -117 -29 -147 -18 -11 -50 -17 -88 -17 -33 0
-74 -3 -91 -6 l-31 -7 0 -78 0 -78 36 -7 c54 -10 263 5 293 21 100 52 173 227
142 342 -16 59 -68 123 -126 155 l-50 28 -277 0 -278 0 0 -379z"/>
<path d="M264 206 c-9 -24 4 -48 23 -44 24 4 24 52 0 56 -9 2 -20 -4 -23 -12z"/>
<path d="M340 190 c0 -18 7 -20 65 -20 58 0 65 2 65 20 0 18 -7 20 -65 20 -58
0 -65 -2 -65 -20z"/>
<path d="M350 120 c0 -16 7 -20 30 -20 23 0 30 4 30 20 0 16 -7 20 -30 20 -23
0 -30 -4 -30 -20z"/>
<path d="M264 66 c-9 -24 4 -48 23 -44 24 4 24 52 0 56 -9 2 -20 -4 -23 -12z"/>
<path d="M370 50 c0 -18 7 -20 55 -20 48 0 55 2 55 20 0 18 -7 20 -55 20 -48
0 -55 -2 -55 -20z"/>
</g>
</svg>
